<svg width="20" height="20" viewBox="0 0 20 20" fill="none" xmlns="http://www.w3.org/2000/svg">
<path d="M5.3732 7.47419C5.63516 5.11661 7.62791 3.33301 10 3.33301V3.33301C12.3721 3.33301 14.3648 5.11661 14.6268 7.47419L14.8366 9.3627C14.9443 10.3315 15.2596 11.2657 15.7611 12.1015L16.2428 12.9044C16.5455 13.4089 16.6969 13.6612 16.7246 13.8645C16.7854 14.3102 16.5412 14.7417 16.1277 14.9188C15.939 14.9997 15.6448 14.9997 15.0565 14.9997H4.94353C4.35515 14.9997 4.06097 14.9997 3.87233 14.9188C3.45885 14.7417 3.21456 14.3102 3.27537 13.8645C3.30311 13.6612 3.45447 13.4089 3.75718 12.9044L4.23888 12.1015C4.74039 11.2657 5.05572 10.3315 5.16337 9.3627L5.3732 7.47419Z" stroke="#222222"/>
<path d="M7.58519 15.3382C7.72762 15.9584 8.04149 16.5064 8.4781 16.8973C8.91471 17.2881 9.44966 17.5 10 17.5C10.5503 17.5 11.0853 17.2881 11.5219 16.8973C11.9585 16.5064 12.2724 15.9584 12.4148 15.3382" stroke="#222222" stroke-linecap="round"/>
</svg>
