<svg width="20" height="20" viewBox="0 0 20 20" fill="none" xmlns="http://www.w3.org/2000/svg">
<path d="M10 4.66699C11.1046 4.66699 12 5.56242 12 6.66699C12 7.77156 11.1046 8.66699 10 8.66699C8.89543 8.66699 8 7.77156 8 6.66699C8 5.56242 8.89543 4.66699 10 4.66699Z" stroke="#2563EB" stroke-linecap="round"/>
<path d="M11.5454 5.45866C11.702 5.18746 11.9355 4.96878 12.2164 4.83028C12.4972 4.69177 12.8128 4.63966 13.1233 4.68054C13.4338 4.72141 13.7252 4.85344 13.9606 5.05991C14.1961 5.26639 14.365 5.53805 14.446 5.84053C14.5271 6.14301 14.5166 6.46274 14.416 6.75927C14.3153 7.05581 14.129 7.31583 13.8805 7.50647C13.6321 7.6971 13.3327 7.80979 13.0202 7.83027C12.7077 7.85075 12.3962 7.77811 12.125 7.62153" stroke="#2563EB"/>
<path d="M8.45456 5.45866C8.29798 5.18746 8.0645 4.96878 7.78364 4.83028C7.50278 4.69177 7.18716 4.63966 6.87669 4.68054C6.56621 4.72141 6.27483 4.85344 6.03939 5.05991C5.80395 5.26639 5.63502 5.53805 5.55397 5.84053C5.47292 6.14301 5.48339 6.46274 5.58405 6.75927C5.68471 7.05581 5.87104 7.31583 6.11948 7.50647C6.36792 7.6971 6.66732 7.80979 6.9798 7.83027C7.29228 7.85075 7.60382 7.77811 7.87502 7.62153" stroke="#2563EB"/>
<path d="M10 10.417C13.273 10.417 14.2087 12.9667 14.4763 14.4246C14.5759 14.9678 14.1356 15.417 13.5834 15.417H6.41669C5.8644 15.417 5.42411 14.9678 5.52379 14.4246C5.79131 12.9667 6.72704 10.417 10 10.417Z" stroke="#2563EB" stroke-linecap="round"/>
<path d="M16.0336 12.6682L16.5157 12.5355L16.5157 12.5355L16.0336 12.6682ZM10.9059 10.4879L10.5366 10.1508L9.91621 10.8303L10.8239 10.9812L10.9059 10.4879ZM14.3177 13.7497L13.8374 13.8886L13.9419 14.2497H14.3177V13.7497ZM12.9166 9.58301V10.083C13.7033 10.083 14.2643 10.4479 14.6863 10.9751C15.1193 11.5162 15.3898 12.2134 15.5515 12.8009L16.0336 12.6682L16.5157 12.5355C16.3376 11.8884 16.0215 11.0431 15.467 10.3502C14.9013 9.64343 14.0738 9.08301 12.9166 9.08301V9.58301ZM10.9059 10.4879L11.2751 10.8251C11.6792 10.3826 12.2029 10.083 12.9166 10.083V9.58301V9.08301C11.8749 9.08301 11.096 9.53816 10.5366 10.1508L10.9059 10.4879ZM10.9059 10.4879L10.8239 10.9812C12.6952 11.2921 13.4898 12.6871 13.8374 13.8886L14.3177 13.7497L14.798 13.6107C14.4013 12.2396 13.4086 10.397 10.9878 9.9947L10.9059 10.4879ZM15.145 13.7497V13.2497H14.3177V13.7497V14.2497H15.145V13.7497ZM16.0336 12.6682L15.5515 12.8009C15.5839 12.9186 15.5553 13.0204 15.4877 13.1006C15.4165 13.1851 15.2958 13.2497 15.145 13.2497V13.7497V14.2497C16.0115 14.2497 16.7743 13.4756 16.5157 12.5355L16.0336 12.6682Z" fill="#2563EB"/>
<path d="M9.09409 10.4879L9.17606 10.9812L10.0838 10.8303L9.46333 10.1508L9.09409 10.4879ZM3.96639 12.6682L4.44847 12.8009L4.44847 12.8009L3.96639 12.6682ZM5.68225 13.7497V14.2497H6.0581L6.16255 13.8886L5.68225 13.7497ZM7.08334 9.58301V10.083C7.79712 10.083 8.32082 10.3826 8.72484 10.8251L9.09409 10.4879L9.46333 10.1508C8.90397 9.53816 8.12503 9.08301 7.08334 9.08301V9.58301ZM3.96639 12.6682L4.44847 12.8009C4.61013 12.2134 4.88064 11.5162 5.3137 10.9751C5.73563 10.4479 6.29666 10.083 7.08334 10.083V9.58301V9.08301C5.92622 9.08301 5.09864 9.64343 4.53297 10.3502C3.97844 11.0431 3.66238 11.8884 3.48431 12.5355L3.96639 12.6682ZM4.85499 13.7497V13.2497C4.70412 13.2497 4.5835 13.1851 4.51226 13.1006C4.4447 13.0204 4.41607 12.9186 4.44847 12.8009L3.96639 12.6682L3.48431 12.5355C3.22564 13.4756 3.98843 14.2497 4.85499 14.2497V13.7497ZM5.68225 13.7497V13.2497H4.85499V13.7497V14.2497H5.68225V13.7497ZM5.68225 13.7497L6.16255 13.8886C6.51018 12.6871 7.30475 11.2921 9.17606 10.9812L9.09409 10.4879L9.01212 9.9947C6.59141 10.397 5.59864 12.2396 5.20194 13.6107L5.68225 13.7497Z" fill="#2563EB"/>
</svg>
