<svg width="20" height="20" viewBox="0 0 20 20" fill="none" xmlns="http://www.w3.org/2000/svg">
<path d="M7.08398 10.417L12.9173 10.417" stroke="#222222" stroke-linecap="round"/>
<path d="M7.08398 12.917L10.4173 12.917" stroke="#222222" stroke-linecap="round"/>
<path d="M4.58398 5.31699C4.58398 4.47691 4.58398 4.05687 4.74747 3.73601C4.89128 3.45376 5.12076 3.22429 5.403 3.08048C5.72387 2.91699 6.14391 2.91699 6.98398 2.91699H10.2565C10.6234 2.91699 10.8069 2.91699 10.9795 2.95844C11.1326 2.99518 11.2789 3.05579 11.4131 3.13803C11.5645 3.23079 11.6942 3.36051 11.9536 3.61994L14.7144 6.38072C14.9738 6.64014 15.1035 6.76986 15.1963 6.92123C15.2785 7.05544 15.3391 7.20176 15.3759 7.35481C15.4173 7.52744 15.4173 7.71089 15.4173 8.07777V14.6837C15.4173 15.5237 15.4173 15.9438 15.2538 16.2646C15.11 16.5469 14.8805 16.7764 14.5983 16.9202C14.2774 17.0837 13.8574 17.0837 13.0173 17.0837H6.98398C6.14391 17.0837 5.72387 17.0837 5.403 16.9202C5.12076 16.7764 4.89128 16.5469 4.74747 16.2646C4.58398 15.9438 4.58398 15.5237 4.58398 14.6837V5.31699Z" stroke="#222222"/>
<path d="M10.416 2.91699V5.51699C10.416 6.35707 10.416 6.77711 10.5795 7.09798C10.7233 7.38022 10.9528 7.60969 11.235 7.7535C11.5559 7.91699 11.9759 7.91699 12.816 7.91699H15.416" stroke="#222222"/>
</svg>
