<svg width="21" height="20" viewBox="0 0 21 20" fill="none" xmlns="http://www.w3.org/2000/svg">
<path d="M10.5 13.333L10.1464 13.6866L10.5 14.0401L10.8536 13.6866L10.5 13.333ZM11 3.33301C11 3.05686 10.7761 2.83301 10.5 2.83301C10.2239 2.83301 10 3.05686 10 3.33301L11 3.33301ZM5.5 8.33301L5.14645 8.68656L10.1464 13.6866L10.5 13.333L10.8536 12.9795L5.85355 7.97945L5.5 8.33301ZM10.5 13.333L10.8536 13.6866L15.8536 8.68656L15.5 8.33301L15.1464 7.97945L10.1464 12.9795L10.5 13.333ZM10.5 13.333L11 13.333L11 3.33301L10.5 3.33301L10 3.33301L10 13.333L10.5 13.333Z" fill="#222222"/>
<path d="M4.66602 17.5H16.3327" stroke="#222222"/>
</svg>
