<svg width="24" height="24" viewBox="0 0 24 24" fill="none" xmlns="http://www.w3.org/2000/svg">
<path d="M10 10C12.2091 10 14 8.20914 14 6C14 3.79086 12.2091 2 10 2C7.79086 2 6 3.79086 6 6C6 8.20914 7.79086 10 10 10Z" stroke="#707070" stroke-width="1.5"/>
<path d="M20.414 11.4141L19 10.0001M19 10.0001L17.586 8.58606M19 10.0001L20.414 8.58606M19 10.0001L17.586 11.4141M17.998 18.0001C17.9993 17.8361 18 17.6694 18 17.5001C18 15.0151 14.418 13.0001 10 13.0001C5.582 13.0001 2 15.0151 2 17.5001C2 19.9851 2 22.0001 10 22.0001C12.231 22.0001 13.84 21.8431 15 21.5631" stroke="#707070" stroke-width="1.5" stroke-linecap="round"/>
</svg>
