<svg width="20" height="20" viewBox="0 0 20 20" fill="none" xmlns="http://www.w3.org/2000/svg">
<path d="M7.91675 12.083L7.91675 9.58301" stroke="#222222" stroke-linecap="round"/>
<path d="M12.0833 12.083L12.0833 9.58301" stroke="#222222" stroke-linecap="round"/>
<path d="M2.5 5.41699H17.5V5.41699C16.6463 5.41699 16.2194 5.41699 15.8788 5.54518C15.3398 5.74806 14.9144 6.17346 14.7115 6.71249C14.5833 7.05308 14.5833 7.47994 14.5833 8.33366V12.2503C14.5833 14.1359 14.5833 15.0788 13.9975 15.6645C13.4118 16.2503 12.469 16.2503 10.5833 16.2503H9.41667C7.53105 16.2503 6.58824 16.2503 6.00245 15.6645C5.41667 15.0788 5.41667 14.1359 5.41667 12.2503V8.33366C5.41667 7.47994 5.41667 7.05308 5.28848 6.71249C5.0856 6.17346 4.6602 5.74806 4.12117 5.54518C3.78058 5.41699 3.35372 5.41699 2.5 5.41699V5.41699Z" stroke="#222222" stroke-linecap="round"/>
<path d="M7.91659 2.91654C7.91659 2.91654 8.33325 2.08301 9.99992 2.08301C11.6666 2.08301 12.0833 2.91634 12.0833 2.91634" stroke="#222222" stroke-linecap="round"/>
</svg>
