<svg width="21" height="20" viewBox="0 0 21 20" fill="none" xmlns="http://www.w3.org/2000/svg">
<path d="M10.5 13.3335L10.1464 13.687L10.5 14.0406L10.8536 13.687L10.5 13.3335ZM11 3.3335C11 3.05735 10.7761 2.8335 10.5 2.8335C10.2239 2.8335 10 3.05735 10 3.3335L11 3.3335ZM5.5 8.3335L5.14645 8.68705L10.1464 13.687L10.5 13.3335L10.8536 12.9799L5.85355 7.97994L5.5 8.3335ZM10.5 13.3335L10.8536 13.687L15.8536 8.68705L15.5 8.3335L15.1464 7.97994L10.1464 12.9799L10.5 13.3335ZM10.5 13.3335L11 13.3335L11 3.3335L10.5 3.3335L10 3.3335L10 13.3335L10.5 13.3335Z" fill="white"/>
<path d="M4.66666 17.5H16.3333" stroke="white"/>
</svg>
