<svg width="20" height="20" viewBox="0 0 20 20" fill="none" xmlns="http://www.w3.org/2000/svg">
<path d="M12.3643 4.9209C12.5003 4.9085 12.6377 4.91459 12.7725 4.93945L12.8711 4.96191C13.0952 5.02299 13.2828 5.14244 13.4551 5.28223C13.6453 5.43658 13.8569 5.64983 14.1035 5.89648L14.4453 6.24219C14.5486 6.34969 14.6406 6.44985 14.7178 6.54492C14.8776 6.7419 15.0119 6.95874 15.0615 7.22754L15.0801 7.36328C15.0884 7.45422 15.0884 7.54578 15.0801 7.63672L15.0615 7.77246C15.0119 8.04126 14.8776 8.2581 14.7178 8.45508C14.5634 8.64529 14.3502 8.85687 14.1035 9.10352L8.24512 14.9619C8.11343 15.0936 7.99619 15.2147 7.86523 15.3125L7.72852 15.4023C7.63292 15.4565 7.53188 15.4961 7.4248 15.5293L7.08398 15.6191L5.12207 16.1094L5.11816 16.1113L5.09668 16.1162C4.93248 16.1573 4.75401 16.2032 4.60547 16.2178C4.46998 16.231 4.25303 16.2299 4.06055 16.0889L3.98047 16.0205C3.77106 15.8111 3.76709 15.5493 3.78223 15.3945C3.79679 15.246 3.84277 15.0674 3.88379 14.9033L4.38086 12.916L4.47168 12.5752C4.50484 12.4684 4.54371 12.3678 4.59766 12.2725L4.6875 12.1357C4.78534 12.0046 4.9062 11.8868 5.03809 11.7549L10.8965 5.89648L11.2422 5.55469C11.3498 5.45137 11.4508 5.35942 11.5459 5.28223C11.7429 5.12246 11.9597 4.98903 12.2285 4.93945L12.3643 4.9209Z" stroke="white"/>
<path d="M10.417 6.24967L12.917 4.58301L15.417 7.08301L13.7503 9.58301L10.417 6.24967Z" fill="white"/>
</svg>
