<svg width="16" height="16" viewBox="0 0 16 16" fill="none" xmlns="http://www.w3.org/2000/svg">
<path d="M10.001 11.6396L10.501 11.6397V11.6396H10.001ZM6.65918 13.1143L6.81729 13.5886L6.81729 13.5886L6.65918 13.1143ZM6.00098 12.6396H5.50098V12.6397L6.00098 12.6396ZM5.70808 7.70711L6.06164 7.35355L5.70808 7.70711ZM10.2939 7.70711L9.94032 7.35355L10.2939 7.70711ZM13.0411 4.95989L13.3946 5.31344L13.0411 4.95989ZM13.0411 4.95989L12.6875 4.60633L9.94032 7.35355L10.2939 7.70711L10.6474 8.06066L13.3946 5.31344L13.0411 4.95989ZM10.001 8.41421H9.50098V11.6396H10.001H10.501V8.41421H10.001ZM10.001 11.6396L9.50098 11.6396L9.50107 11.6399L9.65918 12.1143L9.81729 12.5886C10.2261 12.4523 10.501 12.0696 10.501 11.6397L10.001 11.6396ZM9.65918 12.1143L9.50107 11.6399L6.50107 12.6399L6.65918 13.1143L6.81729 13.5886L9.81729 12.5886L9.65918 12.1143ZM6.65918 13.1143L6.50107 12.6399L6.50098 12.6396L6.00098 12.6396L5.50098 12.6397C5.50101 13.3219 6.16946 13.8045 6.81729 13.5886L6.65918 13.1143ZM6.00098 12.6396H6.50098V8.41421H6.00098H5.50098V12.6396H6.00098ZM5.70808 7.70711L6.06164 7.35355L3.31442 4.60633L2.96086 4.95989L2.60731 5.31344L5.35453 8.06066L5.70808 7.70711ZM2.66797 4.25278H3.16797V3.66699H2.66797H2.16797V4.25278H2.66797ZM3.66797 2.66699V3.16699H12.334V2.66699V2.16699H3.66797V2.66699ZM13.334 3.66699H12.834V4.25278H13.334H13.834V3.66699H13.334ZM12.334 2.66699V3.16699C12.6101 3.16699 12.834 3.39085 12.834 3.66699H13.334H13.834C13.834 2.83857 13.1624 2.16699 12.334 2.16699V2.66699ZM2.66797 3.66699H3.16797C3.16797 3.39085 3.39183 3.16699 3.66797 3.16699V2.66699V2.16699C2.83954 2.16699 2.16797 2.83857 2.16797 3.66699H2.66797ZM2.96086 4.95989L3.31442 4.60633C3.22065 4.51256 3.16797 4.38539 3.16797 4.25278H2.66797H2.16797C2.16797 4.6506 2.326 5.03214 2.60731 5.31344L2.96086 4.95989ZM6.00098 8.41421H6.50098C6.50098 8.01639 6.34294 7.63486 6.06164 7.35355L5.70808 7.70711L5.35453 8.06066C5.4483 8.15443 5.50098 8.28161 5.50098 8.41421H6.00098ZM10.2939 7.70711L9.94032 7.35355C9.65901 7.63486 9.50098 8.01639 9.50098 8.41421H10.001H10.501C10.501 8.28161 10.5537 8.15443 10.6474 8.06066L10.2939 7.70711ZM13.0411 4.95989L13.3946 5.31344C13.6759 5.03213 13.834 4.6506 13.834 4.25278H13.334H12.834C12.834 4.38539 12.7813 4.51256 12.6875 4.60633L13.0411 4.95989Z" fill="#3A4050"/>
</svg>
