<svg width="21" height="20" viewBox="0 0 21 20" fill="none" xmlns="http://www.w3.org/2000/svg">
<path d="M15.4993 11.2498H15.6382C16.5271 11.2498 16.9716 11.2498 17.2583 10.9871C17.2797 10.9675 17.3003 10.9469 17.32 10.9254C17.5827 10.6387 17.5827 10.1943 17.5827 9.30539V9.30539C17.5827 7.52763 17.5827 6.63875 17.0572 6.06532C17.0179 6.02242 16.9768 5.98126 16.9339 5.94195C16.3604 5.4165 15.4716 5.4165 13.6938 5.4165H7.41602C5.5304 5.4165 4.58759 5.4165 4.0018 6.00229C3.41602 6.58808 3.41602 7.53089 3.41602 9.4165V10.2498C3.41602 10.7212 3.41602 10.9569 3.56246 11.1034C3.70891 11.2498 3.94461 11.2498 4.41602 11.2498H5.49935" stroke="#222222"/>
<path d="M5.91602 16.3898L5.91602 9.91683C5.91602 8.97402 5.91602 8.50261 6.20891 8.20972C6.5018 7.91683 6.97321 7.91683 7.91602 7.91683L13.0827 7.91683C14.0255 7.91683 14.4969 7.91683 14.7898 8.20972C15.0827 8.50261 15.0827 8.97402 15.0827 9.91683L15.0827 16.3898C15.0827 16.7063 15.0827 16.8646 14.9789 16.9394C14.875 17.0143 14.7249 16.9642 14.4246 16.8641L12.7564 16.3081C12.6705 16.2794 12.6275 16.2651 12.5832 16.2664C12.5388 16.2677 12.4968 16.2845 12.4126 16.3182L10.685 17.0092C10.5933 17.0459 10.5475 17.0642 10.4993 17.0642C10.4512 17.0642 10.4054 17.0459 10.3137 17.0092L8.58607 16.3182C8.50193 16.2845 8.45987 16.2677 8.41554 16.2664C8.37121 16.2651 8.32823 16.2794 8.24226 16.3081L6.57413 16.8641C6.27382 16.9642 6.12366 17.0143 6.01984 16.9394C5.91602 16.8646 5.91602 16.7063 5.91602 16.3898Z" stroke="#222222"/>
<path d="M8.41602 11.25L11.7493 11.25" stroke="#222222" stroke-linecap="round"/>
<path d="M8.41602 13.75L12.5827 13.75" stroke="#222222" stroke-linecap="round"/>
<path d="M15.0827 5.41683V5.41683C15.0827 3.97751 15.0827 3.25784 14.6946 2.76707C14.6079 2.65742 14.5088 2.55825 14.3991 2.47155C13.9083 2.0835 13.1887 2.0835 11.7493 2.0835H9.24935C7.81003 2.0835 7.09036 2.0835 6.59959 2.47155C6.48994 2.55825 6.39077 2.65742 6.30407 2.76707C5.91602 3.25784 5.91602 3.97751 5.91602 5.41683V5.41683" stroke="#222222"/>
</svg>
