<svg width="16" height="16" viewBox="0 0 16 16" fill="none" xmlns="http://www.w3.org/2000/svg">
<path d="M6.87166 4.81324C7.29971 3.74612 7.51373 3.21256 7.86145 3.13861C7.95288 3.11916 8.04738 3.11916 8.13881 3.13861C8.48653 3.21256 8.70055 3.74612 9.1286 4.81324C9.37203 5.4201 9.49374 5.72352 9.72148 5.9299C9.78536 5.98779 9.8547 6.03934 9.92853 6.08384C10.1918 6.24249 10.5204 6.27192 11.1775 6.33078C12.2901 6.43041 12.8463 6.48023 13.0162 6.79739C13.0514 6.86308 13.0753 6.9342 13.0869 7.00779C13.1433 7.36315 12.7343 7.73519 11.9165 8.47927L11.6893 8.68589C11.307 9.03376 11.1158 9.2077 11.0052 9.42477C10.9389 9.55498 10.8944 9.69521 10.8736 9.83985C10.8388 10.081 10.8948 10.3333 11.0068 10.838L11.0468 11.0183C11.2476 11.9233 11.348 12.3758 11.2227 12.5982C11.1101 12.798 10.9027 12.9259 10.6736 12.9369C10.4186 12.949 10.0593 12.6562 9.34065 12.0707C8.86718 11.6848 8.63045 11.4919 8.36764 11.4166C8.12747 11.3477 7.87279 11.3477 7.63262 11.4166C7.36982 11.4919 7.13308 11.6848 6.65961 12.0707C5.94096 12.6562 5.58163 12.949 5.32662 12.9369C5.09755 12.9259 4.89019 12.798 4.77761 12.5982C4.65228 12.3758 4.75268 11.9233 4.95348 11.0183L4.99348 10.838C5.10545 10.3333 5.16144 10.081 5.1267 9.83985C5.10585 9.69521 5.06138 9.55498 4.99504 9.42477C4.88446 9.2077 4.69328 9.03376 4.31092 8.68589L4.0838 8.47927C3.26594 7.73519 2.85701 7.36314 2.91333 7.00779C2.92499 6.9342 2.94891 6.86308 2.98409 6.79739C3.15396 6.48023 3.71021 6.43041 4.82272 6.33078C5.47991 6.27192 5.80851 6.24249 6.07173 6.08384C6.14556 6.03934 6.21491 5.98779 6.27878 5.9299C6.50653 5.72352 6.62824 5.4201 6.87166 4.81324Z" fill="#FACC15" stroke="#FACC15" stroke-width="2"/>
</svg>
