<svg width="16" height="16" viewBox="0 0 16 16" fill="none" xmlns="http://www.w3.org/2000/svg">
<rect width="16" height="16" fill="white"/>
<path d="M6.7629 4.41852C7.2873 3.11119 7.5495 2.45752 8.00039 2.45752C8.45127 2.45752 8.71347 3.11119 9.23788 4.41852L9.26229 4.4794C9.55856 5.21797 9.70669 5.58726 10.0086 5.81172C10.3105 6.03618 10.7068 6.07167 11.4994 6.14266L11.6427 6.15549C12.9399 6.27167 13.5885 6.32975 13.7273 6.74241C13.8661 7.15507 13.3844 7.59329 12.421 8.46975L12.0995 8.76227C11.6118 9.20595 11.368 9.42779 11.2544 9.71854C11.2332 9.77278 11.2155 9.82834 11.2016 9.88488C11.1269 10.188 11.1983 10.5098 11.3411 11.1535L11.3856 11.3538C11.648 12.5367 11.7792 13.1281 11.5501 13.3833C11.4645 13.4786 11.3532 13.5472 11.2296 13.5809C10.8988 13.6712 10.4292 13.2885 9.48986 12.5231C8.87308 12.0205 8.56469 11.7692 8.21062 11.7127C8.07135 11.6905 7.92943 11.6905 7.79016 11.7127C7.43609 11.7692 7.1277 12.0205 6.51092 12.5231C5.57162 13.2885 5.10197 13.6712 4.77116 13.5809C4.64755 13.5472 4.53628 13.4786 4.45066 13.3833C4.22154 13.1281 4.35277 12.5367 4.61522 11.3538L4.65967 11.1535C4.80247 10.5098 4.87388 10.188 4.79917 9.88488C4.78524 9.82834 4.76762 9.77278 4.74642 9.71854C4.63277 9.42779 4.38893 9.20595 3.90126 8.76227L3.57974 8.46975C2.61638 7.5933 2.13469 7.15507 2.27348 6.74241C2.41227 6.32975 3.06087 6.27167 4.35808 6.15549L4.50137 6.14266C5.29398 6.07167 5.69029 6.03618 5.99219 5.81172C6.29409 5.58726 6.44222 5.21797 6.73848 4.47939L6.7629 4.41852Z" stroke="#FACC15"/>
</svg>
