<svg width="21" height="20" viewBox="0 0 21 20" fill="none" xmlns="http://www.w3.org/2000/svg">
<path d="M10.5 4.1665L10.8536 3.81295L10.5 3.4594L10.1464 3.81295L10.5 4.1665ZM10 14.1665C10 14.4426 10.2239 14.6665 10.5 14.6665C10.7761 14.6665 11 14.4426 11 14.1665L10 14.1665ZM15.5 9.1665L15.8536 8.81295L10.8536 3.81295L10.5 4.1665L10.1464 4.52006L15.1464 9.52006L15.5 9.1665ZM10.5 4.1665L10.1464 3.81295L5.14645 8.81295L5.5 9.1665L5.85355 9.52006L10.8536 4.52006L10.5 4.1665ZM10.5 4.1665L10 4.1665L10 14.1665L10.5 14.1665L11 14.1665L11 4.1665L10.5 4.1665Z" fill="#2563EB"/>
<path d="M4.66666 17.5H16.3333" stroke="#2563EB"/>
</svg>
